<svg width="10" height="6" viewBox="0 0 10 6" fill="none" xmlns="http://www.w3.org/2000/svg">
<path d="M8.93722 1.05228L8.76151 1.23012L8.93722 1.05228C8.71076 0.828527 8.34646 0.828527 8.12 1.05228L5.06149 4.07425C5.04496 4.08933 5.02272 4.09816 4.99906 4.09816C4.97541 4.09816 4.95316 4.08933 4.93664 4.07426L1.88013 1.05395C1.65367 0.830184 1.28936 0.830176 1.0629 1.05393C0.832567 1.28151 0.832557 1.65341 1.06288 1.881L4.11616 4.89812L4.11611 4.89817L4.12049 4.9023C4.35783 5.1258 4.67253 5.25 4.99923 5.25C5.32592 5.25 5.64062 5.1258 5.87796 4.9023L5.87801 4.90235L5.88229 4.89812L8.93724 1.87936C9.16756 1.65177 9.16755 1.27986 8.93722 1.05228Z" fill="#1E0E62" stroke="#1E0E62" stroke-width="0.5"/>
</svg>
