<svg width="19" height="20" viewBox="0 0 19 20" fill="none" xmlns="http://www.w3.org/2000/svg">
<path d="M18.7958 11.3849L17.2125 5.68828C16.7484 4.01939 15.7398 2.55352 14.3469 1.52367C12.9541 0.493823 11.257 -0.0408992 9.52539 0.00450091C7.79377 0.049901 6.12701 0.672818 4.79005 1.77424C3.4531 2.87565 2.52267 4.39236 2.14667 6.08328L0.920833 11.5958C0.78543 12.2049 0.78856 12.8366 0.929994 13.4444C1.07143 14.0521 1.34755 14.6203 1.73799 15.1071C2.12842 15.5938 2.62318 15.9866 3.18576 16.2566C3.74833 16.5265 4.36435 16.6666 4.98833 16.6666H5.91667C6.10793 17.6085 6.61894 18.4553 7.36312 19.0636C8.1073 19.6718 9.03887 20.0041 10 20.0041C10.9611 20.0041 11.8927 19.6718 12.6369 19.0636C13.3811 18.4553 13.8921 17.6085 14.0833 16.6666H14.7817C15.424 16.6667 16.0577 16.5182 16.6331 16.2328C17.2086 15.9474 17.7103 15.5329 18.099 15.0215C18.4877 14.5101 18.753 13.9158 18.874 13.285C18.995 12.6541 18.9686 12.0039 18.7967 11.3849H18.7958ZM10 18.3333C9.48478 18.3311 8.98281 18.1699 8.56275 17.8715C8.14269 17.5732 7.82507 17.1524 7.65333 16.6666H12.3467C12.1749 17.1524 11.8573 17.5732 11.4372 17.8715C11.0172 18.1699 10.5152 18.3311 10 18.3333ZM16.7717 14.0124C16.5395 14.3205 16.2386 14.5702 15.893 14.7416C15.5474 14.913 15.1666 15.0015 14.7808 14.9999H4.98833C4.61399 14.9999 4.24443 14.9157 3.90695 14.7538C3.56947 14.5918 3.27267 14.3561 3.03847 14.064C2.80426 13.772 2.63863 13.4311 2.5538 13.0665C2.46897 12.7019 2.4671 12.3229 2.54833 11.9574L3.77333 6.44411C4.06863 5.11595 4.79942 3.92462 5.84955 3.05949C6.89967 2.19436 8.20885 1.70509 9.56898 1.66946C10.9291 1.63383 12.2621 2.05388 13.3561 2.86284C14.4501 3.6718 15.2422 4.82323 15.6067 6.13411L17.19 11.8308C17.2946 12.2019 17.3113 12.5923 17.2387 12.9711C17.166 13.3498 17.0062 13.7063 16.7717 14.0124Z" fill="#1E0E62"/>
</svg>
