<svg width="20" height="20" viewBox="0 0 20 20" fill="none" xmlns="http://www.w3.org/2000/svg">
<path d="M10 20C8.02218 20 6.08879 19.4135 4.44429 18.3147C2.7998 17.2159 1.51808 15.6541 0.761202 13.8268C0.00432523 11.9996 -0.193708 9.98891 0.192144 8.0491C0.577996 6.10929 1.5304 4.32746 2.92893 2.92894C4.32745 1.53041 6.10928 0.578004 8.04909 0.192152C9.9889 -0.193701 11.9996 0.00433286 13.8268 0.761209C15.6541 1.51809 17.2159 2.79981 18.3147 4.4443C19.4135 6.08879 20 8.02219 20 10C19.9971 12.6513 18.9426 15.1932 17.0679 17.0679C15.1932 18.9426 12.6513 19.9971 10 20ZM10 1.66667C8.35182 1.66667 6.74065 2.15541 5.37024 3.07109C3.99984 3.98677 2.93173 5.28826 2.301 6.81098C1.67027 8.33369 1.50524 10.0092 1.82679 11.6258C2.14833 13.2423 2.942 14.7271 4.10744 15.8926C5.27288 17.058 6.75774 17.8517 8.37424 18.1732C9.99075 18.4948 11.6663 18.3297 13.189 17.699C14.7117 17.0683 16.0132 16.0002 16.9289 14.6298C17.8446 13.2593 18.3333 11.6482 18.3333 10C18.3309 7.79061 17.4522 5.67241 15.8899 4.11013C14.3276 2.54785 12.2094 1.6691 10 1.66667Z" fill="#1E0E62"/>
</svg>
